<svg width="17" height="14" viewBox="0 0 17 14"><path id="post-share-hb" d="M-13287.855-1134.117a1.927,1.927,0,0,1-1.355-.547,1.836,1.836,0,0,1-.56-1.32,1.827,1.827,0,0,1,.56-1.317,1.932,1.932,0,0,1,1.355-.545v-.015a1.929,1.929,0,0,1,1.354.545,1.825,1.825,0,0,1,.561,1.317,1.854,1.854,0,0,1-.561,1.327A1.917,1.917,0,0,1-13287.855-1134.117Zm-11.072-.062h0v-.091h-4.014v-13.847h3.957a25.231,25.231,0,0,1,3.359.158,5.3,5.3,0,0,1,1.649.535,3.161,3.161,0,0,1,1.2,1.149,3.422,3.422,0,0,1,.407,1.664,2.649,2.649,0,0,1-.631,1.88,3.851,3.851,0,0,1-1.978,1.07,3.359,3.359,0,0,1,2.362,1.048,3.035,3.035,0,0,1,.642,1.08,4.255,4.255,0,0,1,.214,1.39,3.8,3.8,0,0,1-.488,1.955,3.237,3.237,0,0,1-1.385,1.307,5.658,5.658,0,0,1-1.793.544A27.406,27.406,0,0,1-13298.928-1134.179Zm-.408-5.521v3.033h1.366a3.888,3.888,0,0,0,1.955-.335,1.175,1.175,0,0,0,.57-1.129,1.341,1.341,0,0,0-.529-1.228,3.855,3.855,0,0,0-1.955-.346l.019.005Zm0-5.263v2.781h.774a4.421,4.421,0,0,0,1.971-.306,1.011,1.011,0,0,0,.4-.421,1.428,1.428,0,0,0,.132-.641,1.6,1.6,0,0,0-.124-.665.988.988,0,0,0-.374-.432,2.016,2.016,0,0,0-.736-.238,7.742,7.742,0,0,0-1.207-.079Zm13.153,6.19h-3.337v-9.323h3.34v9.323h0Z" transform="translate(13302.941 1148.117)" fill="#f2f2f2"></path></svg>