<svg width="17.5" height="15.625" viewBox="0 0 17.5 15.625"><path id="post-share-pk" d="M7.187-15a1.48,1.48,0,0,1,1.113.469A1.578,1.578,0,0,1,8.75-13.4v5.273A8.576,8.576,0,0,1,7.578-3.73,8.682,8.682,0,0,1,4.395-.547,8.576,8.576,0,0,1,0,.625,8.576,8.576,0,0,1-4.395-.547,8.682,8.682,0,0,1-7.578-3.73,8.576,8.576,0,0,1-8.75-8.125V-13.4a1.543,1.543,0,0,1,.469-1.133A1.543,1.543,0,0,1-7.148-15ZM.859-4.531,4.648-8.125a4.094,4.094,0,0,0,.566-.7,1.138,1.138,0,0,0,.1-.508,1.124,1.124,0,0,0-.352-.82,1.124,1.124,0,0,0-.82-.352,1.232,1.232,0,0,0-.488.078,3,3,0,0,0-.605.469L0-7.031l-3.047-2.93a2.2,2.2,0,0,0-.586-.469,1.262,1.262,0,0,0-.469-.078,1.169,1.169,0,0,0-.859.352,1.124,1.124,0,0,0-.352.82.977.977,0,0,0,.117.508,5.188,5.188,0,0,0,.547.664L-.82-4.531A1.124,1.124,0,0,0,0-4.18,1.258,1.258,0,0,0,.859-4.531Z" transform="translate(8.75 15)" fill="#f2f2f2"></path></svg>