<svg width="20" height="16.25" viewBox="0 0 20 16.25"><path id="post-share-tw" d="M7.93-11.562A9.016,9.016,0,0,0,10-13.711a8.811,8.811,0,0,1-2.344.664,4.07,4.07,0,0,0,1.8-2.266,8.345,8.345,0,0,1-2.617.977,4.639,4.639,0,0,0-1.348-.937,3.913,3.913,0,0,0-1.66-.352,3.962,3.962,0,0,0-2.031.547,4.014,4.014,0,0,0-1.484,1.5,4.067,4.067,0,0,0-.547,2.051,5.693,5.693,0,0,0,.078.937,11.354,11.354,0,0,1-4.707-1.25,11.31,11.31,0,0,1-3.73-3.047,3.927,3.927,0,0,0-.586,2.051,3.94,3.94,0,0,0,.508,1.973A4.55,4.55,0,0,0-7.344-9.375,3.861,3.861,0,0,1-9.18-9.922v.078a3.932,3.932,0,0,0,.937,2.578A4.133,4.133,0,0,0-5.9-5.82,5.207,5.207,0,0,1-6.992-5.7q-.352,0-.742-.039A4.079,4.079,0,0,0-6.309-3.73a3.816,3.816,0,0,0,2.4.8A8.132,8.132,0,0,1-9.023-1.172q-.547,0-.977-.039A11.38,11.38,0,0,0-3.711.625,11.27,11.27,0,0,0,2.656-1.211,11.155,11.155,0,0,0,6.6-5.625a11.583,11.583,0,0,0,1.367-5.43A2.327,2.327,0,0,0,7.93-11.562Z" transform="translate(10 15.625)" fill="#f2f2f2"></path></svg>