<svg width="17.5" height="17.5" viewBox="0 0 17.5 17.5">
  <path
    id="post-share-fb"
    d="M8.75-15.273a.919.919,0,0,0-.293-.7.97.97,0,0,0-.684-.273H-7.773a.952.952,0,0,0-.7.273.952.952,0,0,0-.273.7V.273a.97.97,0,0,0,.273.684.919.919,0,0,0,.7.293H.586v-6.8H-1.68V-8.164H.586v-1.953A3.4,3.4,0,0,1,1.523-12.7a3.408,3.408,0,0,1,2.461-.9q1.211,0,2.031.078v2.383H4.609a1.354,1.354,0,0,0-1.055.352,1.452,1.452,0,0,0-.234.937v1.68H5.937L5.586-5.547H3.32v6.8H7.773a.919.919,0,0,0,.7-.293A.97.97,0,0,0,8.75.273Z"
    transform="translate(8.75 16.25)"
    fill="#f2f2f2"
  ></path>
</svg>